<svg xmlns="http://www.w3.org/2000/svg" xmlns:xlink="http://www.w3.org/1999/xlink" width="1080" zoomAndPan="magnify" viewBox="0 0 810 809.999993" height="1080" preserveAspectRatio="xMidYMid meet" version="1.0"><defs><clipPath id="11c992fc6f"><path d="M 159 137.53125 L 651 137.53125 L 651 672.28125 L 159 672.28125 Z M 159 137.53125 " clip-rule="nonzero"/></clipPath></defs><g clip-path="url(#11c992fc6f)"><path fill="#38bdf8" d="M 619.683594 509.675781 C 609.742188 530.011719 563.699219 534.585938 500.867188 520.84375 C 503.882812 504.230469 506.195312 486.953125 507.855469 469.359375 C 531.597656 454.945312 553.445312 439.703125 572.503906 424.050781 C 576.488281 427.777344 580.402344 431.503906 584.015625 435.238281 C 614.003906 466.152344 627.347656 493.992188 619.683594 509.675781 Z M 462.253906 560.027344 C 447.765625 562.980469 436.835938 575.8125 436.835938 591.15625 C 436.835938 597.9375 439.011719 604.199219 442.648438 609.363281 C 430.804688 631.203125 417.621094 643.777344 404.921875 643.777344 C 382.28125 643.777344 357.984375 604.433594 342.785156 541.980469 C 363.242188 536.226562 384.160156 528.96875 404.925781 520.679688 C 425.707031 528.96875 446.621094 536.226562 467.082031 541.980469 C 465.558594 548.230469 463.945312 554.257812 462.253906 560.027344 Z M 190.183594 509.675781 C 182.523438 493.992188 195.859375 466.152344 225.847656 435.238281 C 229.464844 431.503906 233.375 427.777344 237.363281 424.050781 C 256.421875 439.703125 278.269531 454.949219 302.007812 469.363281 C 303.667969 486.953125 305.976562 504.230469 308.992188 520.84375 C 246.160156 534.589844 200.121094 530.023438 190.183594 509.675781 Z M 225.847656 374.753906 C 195.859375 343.835938 182.523438 316 190.183594 300.316406 C 195.46875 289.476562 211.160156 283.207031 234.015625 281.699219 C 239.375 291.679688 249.789062 298.558594 261.882812 298.558594 C 272.554688 298.558594 281.972656 293.230469 287.730469 285.128906 C 294.59375 286.242188 301.636719 287.535156 308.992188 289.140625 C 305.976562 305.753906 303.667969 323.035156 302.007812 340.628906 C 278.269531 355.042969 256.421875 370.289062 237.363281 385.9375 C 233.375 382.214844 229.464844 378.488281 225.847656 374.753906 Z M 404.921875 166.214844 C 427.585938 166.214844 451.882812 205.5625 467.085938 268.035156 C 446.628906 273.792969 425.699219 280.925781 404.925781 289.21875 C 384.160156 280.925781 363.234375 273.792969 342.777344 268.03125 C 357.976562 205.5625 382.273438 166.214844 404.921875 166.214844 Z M 510.308594 376.074219 C 524.683594 385.476562 538.105469 395.152344 550.367188 404.996094 C 538.105469 414.839844 524.683594 424.515625 510.308594 433.917969 C 510.714844 424.269531 510.984375 414.617188 510.984375 404.996094 C 510.984375 395.375 510.714844 385.71875 510.308594 376.074219 Z M 442.890625 305.78125 C 453.164062 302.234375 463.210938 299.023438 472.953125 296.273438 C 474.496094 304.851562 475.859375 313.75 477.050781 322.941406 C 468.660156 318.425781 460.132812 314.003906 451.40625 309.746094 C 448.597656 308.378906 445.722656 307.117188 442.890625 305.78125 Z M 332.8125 322.9375 C 334.007812 313.734375 335.375 304.824219 336.917969 296.242188 C 346.710938 299.015625 356.757812 302.148438 367.085938 305.722656 C 364.214844 307.074219 361.292969 308.359375 358.4375 309.746094 C 349.71875 314.003906 341.199219 318.421875 332.8125 322.9375 Z M 299.554688 433.921875 C 285.183594 424.519531 271.757812 414.839844 259.496094 404.996094 C 271.757812 395.152344 285.183594 385.472656 299.554688 376.066406 C 299.148438 385.71875 298.878906 395.375 298.878906 404.996094 C 298.878906 414.617188 299.148438 424.269531 299.554688 433.921875 Z M 367.128906 504.25 C 356.789062 507.828125 346.71875 510.972656 336.914062 513.746094 C 335.375 505.160156 334.007812 496.257812 332.8125 487.054688 C 341.199219 491.5625 349.71875 495.988281 358.4375 500.246094 C 361.296875 501.636719 364.242188 502.890625 367.128906 504.25 Z M 477.050781 487.050781 C 475.859375 496.253906 474.492188 505.160156 472.945312 513.75 C 463.140625 510.972656 453.066406 507.832031 442.722656 504.25 C 445.601562 502.894531 448.546875 501.636719 451.40625 500.246094 C 460.132812 495.988281 468.660156 491.5625 477.050781 487.050781 Z M 438.816406 474.441406 C 427.363281 480.023438 416.082031 485.011719 404.921875 489.707031 C 393.761719 485.011719 382.484375 480.023438 371.035156 474.441406 C 356.597656 467.402344 342.652344 459.976562 329.273438 452.265625 C 328.191406 437.066406 327.578125 421.292969 327.578125 404.996094 C 327.578125 388.695312 328.191406 372.925781 329.273438 357.722656 C 342.652344 350.015625 356.597656 342.589844 371.035156 335.546875 C 382.488281 329.964844 393.761719 324.980469 404.925781 320.285156 C 416.085938 324.980469 427.363281 329.964844 438.816406 335.546875 C 453.25 342.589844 467.207031 350.019531 480.589844 357.730469 C 481.671875 372.929688 482.289062 388.695312 482.289062 404.996094 C 482.289062 421.292969 481.671875 437.058594 480.589844 452.261719 C 467.207031 459.972656 453.25 467.402344 438.816406 474.441406 Z M 564.925781 281.246094 C 593.824219 281.246094 613.578125 287.804688 619.683594 300.316406 C 623.929688 309.003906 621.511719 321.503906 613.609375 336.113281 C 613.042969 336.082031 612.515625 335.945312 611.953125 335.945312 C 594.445312 335.945312 580.1875 350.1875 580.1875 367.703125 C 580.1875 370.949219 580.824219 374.023438 581.730469 376.980469 C 578.769531 379.964844 575.699219 382.953125 572.503906 385.9375 C 553.445312 370.289062 531.597656 355.046875 507.855469 340.632812 C 506.195312 323.050781 503.890625 305.78125 500.878906 289.175781 C 525.070312 283.890625 546.828125 281.246094 564.925781 281.246094 Z M 594.070312 404.996094 C 596.664062 402.539062 599.21875 400.078125 601.667969 397.617188 C 604.90625 398.738281 608.332031 399.472656 611.953125 399.472656 C 629.457031 399.472656 643.710938 385.21875 643.710938 367.703125 C 643.710938 361.308594 641.773438 355.378906 638.511719 350.390625 C 651.433594 326.648438 653.988281 305.1875 645.464844 287.722656 C 626.804688 249.503906 566.109375 245.289062 494.96875 261.003906 C 477.90625 190.199219 447.492188 137.519531 404.921875 137.519531 C 362.359375 137.519531 331.945312 190.195312 314.894531 260.996094 C 307.046875 259.261719 299.363281 257.816406 291.816406 256.589844 C 287.535156 244.09375 275.800781 235.027344 261.882812 235.027344 C 249.394531 235.027344 238.660156 242.347656 233.476562 252.875 C 200.417969 254.886719 175.230469 265.488281 164.398438 287.722656 C 150.8125 315.550781 165.3125 353.558594 205.242188 394.734375 C 208.558594 398.164062 212.191406 401.578125 215.796875 404.996094 C 212.191406 408.414062 208.558594 411.828125 205.242188 415.25 C 165.3125 456.433594 150.8125 494.4375 164.398438 522.269531 C 176.523438 547.109375 206.359375 557.609375 245.316406 557.609375 C 266.296875 557.609375 289.972656 554.46875 314.882812 548.96875 C 331.941406 619.78125 362.355469 672.472656 404.921875 672.472656 C 430.5 672.472656 451.6875 653.414062 468.238281 622.886719 C 468.367188 622.886719 468.488281 622.925781 468.613281 622.925781 C 486.117188 622.925781 500.375 608.667969 500.375 591.15625 C 500.375 581.917969 496.347656 573.660156 490.027344 567.847656 C 491.800781 561.738281 493.425781 555.402344 494.976562 548.96875 C 519.886719 554.46875 543.5625 557.609375 564.554688 557.609375 C 603.484375 557.609375 633.359375 547.097656 645.464844 522.269531 C 659.050781 494.429688 644.550781 456.433594 604.625 415.25 C 601.308594 411.828125 597.675781 408.414062 594.070312 404.996094 " fill-opacity="1" fill-rule="nonzero"/></g><path fill="#38bdf8" d="M 404.921875 358.789062 C 379.441406 358.789062 358.722656 379.519531 358.722656 404.996094 C 358.722656 430.472656 379.441406 451.199219 404.921875 451.199219 C 430.410156 451.199219 451.128906 430.472656 451.128906 404.996094 C 451.128906 379.519531 430.410156 358.789062 404.921875 358.789062 " fill-opacity="1" fill-rule="nonzero"/></svg>